<?xml version="1.0" encoding="UTF-8"?>
<!DOCTYPE svg PUBLIC "-//W3C//DTD SVG 1.1//EN" "http://www.w3.org/Graphics/SVG/1.1/DTD/svg11.dtd">
<!-- Creator: CorelDRAW 2018 (64-Bit) -->
<svg xmlns="http://www.w3.org/2000/svg" xml:space="preserve" width="156px" height="151px" version="1.1" style="shape-rendering:geometricPrecision; text-rendering:geometricPrecision; image-rendering:optimizeQuality; fill-rule:evenodd; clip-rule:evenodd"
viewBox="0 0 156 151.57"
 xmlns:xlink="http://www.w3.org/1999/xlink">
 <defs>
  <style type="text/css">
   <![CDATA[
    .fil0 {fill:#FEFEFE}
    .fil1 {fill:#FEFEFE;fill-rule:nonzero}
   ]]>
  </style>
 </defs>
 <g id="Слой_x0020_1">
  <metadata id="CorelCorpID_0Corel-Layer"/>
  <g id="_2428585575904">
   <path class="fil0" d="M49.91 87l-9.49 0c-11.6,0 -20.24,-9.57 -19.12,-21.17 1.12,-11.6 11.61,-21.17 23.21,-21.17l14.53 0c0.22,-0.6 0.44,-1.19 0.67,-1.78 2.65,-6.78 6.36,-13.3 10.86,-19.32l-24.02 0c-0.01,0 -0.01,0 -0.02,0 -23.24,0.01 -44.09,19.03 -46.33,42.27 0,0 0,0.01 0,0.01 -2.21,22.92 14.5,41.81 37.37,42.25 0.27,0 0.54,0.01 0.81,0.01 1.19,0 4.35,-0.05 7.76,-0.15 1.12,-4.82 1.95,-9.71 2.74,-14.49 0.35,-2.15 0.69,-4.3 1.03,-6.46zm52.64 -42.34l13.03 0c11.6,0 20.24,9.57 19.12,21.17 -1.12,11.6 -11.61,21.17 -23.21,21.17l-16.23 0c-1.43,7.16 -3.21,14.28 -5.81,21.1l20 0c0.01,0 0.01,0 0.02,0 23.24,-0.01 44.09,-19.03 46.33,-42.27 0,-0.01 0,-0.01 0,-0.02 2.21,-22.91 -14.5,-41.8 -37.37,-42.24 -0.27,-0.01 -0.54,-0.01 -0.81,-0.01 -1.41,0 -4.32,0.07 -7.49,0.21 -3.69,6.33 -5.94,13.53 -7.58,20.89z"/>
   <path class="fil1" d="M117.42 3.63c-18.2,12.47 -22.43,33.34 -25.69,53.1 -1.24,7.5 -2.28,15.02 -3.61,22.5 -1.55,8.81 -3.48,17.99 -6.76,26.39 -7.86,20.1 -26.62,38.47 -47.89,45.82 -1,0.35 -2.09,-0.05 -2.59,-0.94 -0.5,-0.89 -0.23,-1.97 0.63,-2.56 18.2,-12.48 22.44,-33.34 25.69,-53.1 1.24,-7.5 2.29,-15.02 3.61,-22.5 1.55,-8.82 3.48,-18 6.76,-26.39 7.86,-20.1 26.62,-38.47 47.89,-45.83 1,-0.34 2.09,0.06 2.59,0.95 0.5,0.88 0.23,1.97 -0.63,2.56z"/>
  </g>
 </g>
</svg>
