<?xml version="1.0" encoding="UTF-8"?>
<!DOCTYPE svg PUBLIC "-//W3C//DTD SVG 1.1//EN" "http://www.w3.org/Graphics/SVG/1.1/DTD/svg11.dtd">
<!-- Creator: CorelDRAW 2018 (64-Bit) -->
<svg xmlns="http://www.w3.org/2000/svg" xml:space="preserve" width="882px" height="1046px" version="1.1" style="shape-rendering:geometricPrecision; text-rendering:geometricPrecision; image-rendering:optimizeQuality; fill-rule:evenodd; clip-rule:evenodd"
viewBox="0 0 615.33 729.63"
 xmlns:xlink="http://www.w3.org/1999/xlink">
 <defs>
  <style type="text/css">
   <![CDATA[
    .fil0 {fill:#2B2A29}
   ]]>
  </style>
 </defs>
 <g id="Слой_x0020_1">
  <metadata id="CorelCorpID_0Corel-Layer"/>
  <path class="fil0" d="M303.28 520.24l179.23 0c11.51,0 20.93,9.41 20.93,20.92l0 0c0,11.51 -9.42,20.93 -20.93,20.93l-179.23 0c-11.51,0 -20.92,-9.42 -20.92,-20.93l0 0c0,-11.51 9.41,-20.92 20.92,-20.92zm-163.59 -520.24l335.95 0 0 109.96c0,16.67 -13.63,30.31 -30.3,30.31l-275.34 0c-16.67,0 -30.31,-13.64 -30.31,-30.31l0 -109.96zm-26.63 0l1.45 0 0 48 -1.45 0c-35.78,0 -65.06,29.28 -65.06,65.06l0 503.51c0,35.78 29.28,65.06 65.06,65.06l389.21 0c35.79,0 65.07,-29.28 65.07,-65.06l0 -503.51c0,-35.78 -29.28,-65.06 -65.07,-65.06l-1.44 0 0 -48 1.44 0c62.19,0 113.06,50.88 113.06,113.06l0 503.51c0,62.18 -50.87,113.06 -113.06,113.06l-389.21 0c-62.18,0 -113.06,-50.88 -113.06,-113.06l0 -503.51c0,-62.18 50.88,-113.06 113.06,-113.06zm2.25 276.79c4.41,5.88 13.24,17.34 20.58,24.95 16.18,16.76 22.8,20.96 40.43,6.2 21.23,-17.78 43.95,-38.7 63.18,-58.9 27.66,-29.05 -9.77,-55.58 -28.09,-35.38 -14.04,15.49 -49.75,63.61 -49.75,63.61 -6.8,-10.36 -21.07,-37.31 -36.93,-31.21 -10.78,4.16 -17.15,20.44 -9.42,30.73zm0 139.69c4.41,5.88 13.24,17.34 20.58,24.95 16.18,16.77 22.8,20.96 40.43,6.2 21.23,-17.78 43.95,-38.7 63.18,-58.9 27.66,-29.05 -9.77,-55.58 -28.09,-35.38 -14.04,15.49 -49.75,63.61 -49.75,63.61 -6.8,-10.36 -21.07,-37.31 -36.93,-31.2 -10.78,4.15 -17.15,20.43 -9.42,30.72zm0 139.69c4.41,5.88 13.24,17.34 20.58,24.95 16.18,16.77 22.8,20.96 40.43,6.2 21.23,-17.78 43.95,-38.7 63.18,-58.89 27.66,-29.06 -9.77,-55.59 -28.09,-35.39 -14.04,15.49 -49.75,63.61 -49.75,63.61 -6.8,-10.35 -21.07,-37.31 -36.93,-31.2 -10.78,4.15 -17.15,20.43 -9.42,30.72zm187.97 -315.32l179.23 0c11.51,0 20.93,9.42 20.93,20.93l0 0c0,11.51 -9.42,20.92 -20.93,20.92l-179.23 0c-11.51,0 -20.92,-9.41 -20.92,-20.92l0 0c0,-11.51 9.41,-20.93 20.92,-20.93zm0 139.69l179.23 0c11.51,0 20.93,9.42 20.93,20.93l0 0c0,11.51 -9.42,20.92 -20.93,20.92l-179.23 0c-11.51,0 -20.92,-9.41 -20.92,-20.92l0 0c0,-11.51 9.41,-20.93 20.92,-20.93z"/>
 </g>
</svg>
